<?xml version="1.0" standalone="no"?>
<!DOCTYPE svg PUBLIC "-//W3C//DTD SVG 20010904//EN"
 "http://www.w3.org/TR/2001/REC-SVG-20010904/DTD/svg10.dtd">
<svg version="1.0" xmlns="http://www.w3.org/2000/svg"
 width="1080.000000pt" height="1080.000000pt" viewBox="0 0 1080.000000 1080.000000"
 preserveAspectRatio="xMidYMid meet">
<metadata>
Created by potrace 1.11, written by Peter Selinger 2001-2013
</metadata>
<g transform="translate(0.000000,1080.000000) scale(0.100000,-0.100000)"
fill="#000000" stroke="none">
<path d="M4979 10796 c-2 -2 -44 -7 -94 -11 -49 -3 -99 -8 -110 -10 -11 -3
-42 -7 -70 -10 -27 -3 -75 -10 -105 -15 -30 -5 -73 -11 -95 -15 -22 -3 -74
-12 -115 -20 -41 -8 -86 -16 -100 -19 -14 -2 -65 -14 -115 -26 -49 -12 -97
-23 -105 -25 -20 -5 -180 -50 -260 -74 -370 -109 -863 -331 -1200 -539 -195
-120 -494 -328 -556 -387 -6 -5 -29 -23 -50 -40 -376 -293 -795 -756 -1101
-1215 -384 -576 -670 -1276 -793 -1940 -11 -58 -24 -127 -29 -155 -6 -27 -13
-74 -16 -104 -4 -30 -8 -62 -10 -72 -2 -10 -6 -49 -10 -86 -3 -37 -8 -79 -10
-93 -27 -161 -26 -848 0 -1045 3 -16 7 -55 10 -85 3 -30 7 -64 9 -75 2 -11 7
-47 11 -80 4 -32 9 -68 11 -80 2 -11 9 -49 15 -85 5 -36 17 -99 25 -140 9 -41
17 -83 19 -92 50 -251 189 -682 315 -973 630 -1454 1876 -2567 3385 -3024 233
-71 557 -144 729 -166 21 -3 50 -7 65 -10 29 -5 79 -11 166 -20 33 -4 70 -8
82 -10 74 -12 285 -20 523 -20 310 0 412 6 710 41 31 4 301 48 355 58 313 60
771 203 1060 331 17 8 53 23 80 35 233 102 533 269 780 433 373 249 751 576
1025 887 41 46 81 91 88 98 31 34 175 215 239 302 227 307 425 644 573 974 17
39 37 84 45 100 94 205 254 695 299 916 3 14 14 69 25 123 12 53 25 125 31
160 5 34 12 71 14 82 4 21 14 95 22 155 2 19 6 49 9 65 2 17 7 68 11 115 3 47
8 101 11 120 8 61 11 662 3 735 -4 39 -11 108 -14 155 -4 47 -9 101 -11 120
-3 19 -7 55 -10 80 -3 25 -7 56 -10 70 -2 14 -7 45 -10 70 -5 37 -24 141 -70
372 -16 79 -104 388 -147 513 -141 411 -365 877 -570 1182 -26 40 -48 77 -48
83 0 5 -4 10 -8 10 -4 0 -16 15 -27 33 -41 69 -265 364 -364 477 -269 307
-528 551 -841 789 -634 483 -1417 836 -2190 986 -171 33 -175 34 -260 46 -41
5 -86 12 -100 14 -14 2 -54 7 -90 10 -36 4 -78 9 -95 12 -35 7 -929 15 -936 9z
m791 -799 c19 -3 67 -7 105 -11 39 -4 84 -9 100 -11 17 -3 48 -7 70 -10 22 -3
51 -7 65 -10 14 -2 41 -6 60 -9 64 -9 242 -46 324 -67 44 -12 89 -22 99 -24
10 -2 57 -16 105 -30 457 -139 873 -335 1250 -587 552 -369 1036 -875 1378
-1438 54 -90 55 -91 93 -162 101 -187 104 -193 241 -503 5 -11 18 -47 30 -80
11 -33 24 -69 29 -80 47 -107 143 -452 182 -650 27 -141 25 -132 33 -186 4
-25 8 -57 11 -70 3 -25 17 -130 20 -164 27 -251 27 -755 0 -960 -2 -16 -6 -57
-10 -90 -3 -33 -10 -85 -15 -115 -5 -30 -11 -71 -14 -90 -90 -585 -359 -1258
-710 -1780 -62 -93 -191 -269 -237 -325 -268 -324 -523 -570 -829 -799 -63
-47 -119 -89 -125 -94 -26 -19 -266 -172 -310 -197 -177 -99 -222 -122 -325
-172 -350 -168 -769 -307 -1110 -369 -117 -22 -192 -34 -230 -39 -273 -35
-350 -39 -650 -40 -240 0 -391 6 -480 20 -14 2 -52 6 -85 10 -71 8 -75 8 -234
35 -69 12 -127 23 -130 25 -3 1 -22 6 -41 9 -67 11 -246 57 -375 97 -828 255
-1560 733 -2127 1389 -410 474 -726 1038 -904 1615 -19 61 -38 124 -44 140
-16 52 -59 231 -66 271 -3 22 -8 42 -10 45 -2 3 -5 19 -8 35 -27 158 -46 280
-51 334 -4 36 -9 72 -10 80 -27 143 -26 767 0 965 3 17 7 55 10 85 17 157 62
393 115 596 123 474 343 962 623 1384 60 89 248 345 266 360 3 3 31 34 61 70
150 178 403 428 569 560 24 19 48 40 55 45 52 49 474 345 490 345 2 0 52 28
112 63 127 73 458 237 480 237 3 0 30 11 60 25 30 14 60 25 67 25 7 0 17 4 22
9 6 5 26 14 45 20 19 5 88 28 153 50 261 89 607 167 872 196 33 4 71 8 85 10
14 2 66 7 115 10 50 4 91 8 93 10 5 4 600 -3 642 -8z"/>
<path d="M4030 8410 l0 -800 -368 0 -367 0 0 -610 0 -610 367 0 368 0 1 -1367
c0 -753 2 -1388 4 -1413 8 -124 16 -229 20 -256 3 -16 7 -42 10 -59 2 -16 7
-48 11 -70 46 -310 196 -633 380 -820 215 -220 566 -383 964 -451 14 -2 34 -6
45 -9 11 -2 46 -7 78 -10 32 -4 68 -8 79 -10 137 -27 956 -27 1120 0 13 2 50
6 83 9 33 3 71 8 85 10 14 2 47 7 73 11 27 4 56 8 65 9 67 12 92 16 127 22 45
7 238 49 294 64 l38 10 0 615 0 615 -72 0 c-57 0 -87 -6 -144 -30 -106 -43
-355 -111 -474 -127 -67 -10 -273 -10 -357 -1 -238 27 -431 141 -519 308 -63
121 -96 251 -107 420 -3 49 -7 2394 -5 2508 l1 22 838 0 839 0 0 610 0 610
-839 0 -838 0 0 43 c-1 23 -1 383 -1 800 l-1 757 -899 0 -899 0 0 -800z"/>
</g>
</svg>
